# xmcd CD database file
#
# Track frame offsets:
#	150
#	12019
#	41338
#	55029
#	69932
#	86416
#	97655
#	112447
#	127148
#	139299
#	155769
#	171257
#	180598
#	194512
#	210247
#	228950
#
# Disc length: 3601 seconds
#
# Revision: 0
# Processed by: cddbd v1.5.2PL0 Copyright (c) Steve Scherf et al.
# Submitted via: CDex 1.51
#
DISCID=d40e0f10
DTITLE=Jean Lucas e Raphael - ao vivo
DYEAR=2007
DGENRE=Country
TTITLE0=Meu universo e voce
TTITLE1=Pout-Porri-Saudade da Minha Terra-Chega
TTITLE2=Pout-Porri-24 horas de amor-No mesmo lugar
TTITLE3=Saudade
TTITLE4=Chorando se foi
TTITLE5=Amargurado
TTITLE6=Volta pra Mim
TTITLE7=Pout-Porri-Ainda ontem chorei de saudade-Boate Azul
TTITLE8=Labaredas de Amor
TTITLE9=E o Amor
TTITLE10=A gente se Enrosca
TTITLE11=Pout-Porri-Bica dagua-O doutor e a empregada
TTITLE12=Toque de Magica
TTITLE13=Pout-Porri-Boiadeiro Errante-Meio da Porteira
TTITLE14=Duas vezes voce
TTITLE15=Pout-Pourri-Pagode em Brasilia-Mini saia-As aguas do SFrancisco-Pagode do Ala-Chora Viola-Caminheiro
EXTD=YEAR: 2007
EXTT0=
EXTT1=
EXTT2=
EXTT3=
EXTT4=
EXTT5=
EXTT6=
EXTT7=
EXTT8=
EXTT9=
EXTT10=
EXTT11=
EXTT12=
EXTT13=
EXTT14=
EXTT15=
PLAYORDER=
